<svg width="1024" height="1024" viewBox="0 0 1024 1024" fill="none" xmlns="http://www.w3.org/2000/svg">
<path d="M0 0H1024V288C1024 262.023 1002.03 241.465 976.106 243.193L559.965 270.936C550.981 271.535 544 278.996 544 288C544 297.004 550.981 304.465 559.965 305.064L976.106 332.807C1002.03 334.535 1024 313.977 1024 288V1024H0V800H512V577.778L672 800H842.351C952.134 800 1038.78 738.462 1021.89 653.846C1009.29 590.735 929.701 573.269 869.037 559.957C848.367 555.421 829.894 551.367 817.017 546.154C766.348 525.641 778.916 484.615 833.906 484.615C888.896 484.615 905.786 523.077 905.786 523.077L1007.12 500C1007.12 500 990.234 430.769 888.896 407.692C846.672 400 768 400 768 400H672V622.222L512 400H384V704L246.519 497.778L393.44 321.472C404.7 339.787 424.924 352 448 352C483.346 352 512 323.346 512 288C512 252.654 483.346 224 448 224C424.311 224 403.628 236.87 392.562 256H320L128 486.4V256H0V0Z" fill="black"/>
<path d="M175.407 583.111L256 704H128V640L175.407 583.111Z" fill="black"/>
<path d="M901.465 707.692C840.102 744.955 778.739 714.527 768 691.34V621.319C790.128 631.556 822.018 640.481 867.686 646.154C922.564 652.402 926.799 692.308 901.465 707.692Z" fill="black"/>
</svg>
